<svg xmlns="http://www.w3.org/2000/svg" viewBox="0 0 317.04 51.86"><defs><style>.cls-1{fill:#8c584a;}</style></defs><g id="Layer_2" data-name="Layer 2"><g id="Logo"><path class="cls-1" d="M22.83,48.73v1.79H0V48.73c4-.26,5-1.53,5-5.49V13.78c0-4-1-5.23-5-5.49V6.51H22.9V8.29c-3.26.58-3.89,2-3.89,5.49V24.37C25.9,18.11,29.4,13.78,29.4,11.1c0-1.72-.95-2.43-3.19-2.81V6.51H42.8V8.29c-4.28.26-7.4,2.23-10.78,6l-3.51,3.89c7.72,6.76,11.42,14.48,14.41,23.6,1.47,4.53,2.24,6.95,5.49,6.95h.38v1.79H25.19V48.73c2.49-.19,3.32-.89,3.32-3.25,0-5.17-3.13-12.12-9.5-18.12V43.24C19,46.69,19.64,48.09,22.83,48.73Z"/><path class="cls-1" d="M57.14,51.86c-5.16,0-8.61-3.26-8.61-7.72,0-6.32,6.06-9.51,18.5-14.29V27.62c0-4.47-1-6.51-3.83-6.51a3.57,3.57,0,0,0-3.82,3.45c0,1.34.12,2.42.12,3.12,0,3.13-1.91,5-4.59,5a4,4,0,0,1-4.21-4.34c0-5.35,5.49-9.82,14.35-9.82,4.91,0,8.8,1.34,11.16,3.51C78.7,24.43,79,27.17,79,31v8.86c0,4.6.57,6.83,2.42,6.83a1.85,1.85,0,0,0,1.15-.51v2a9.47,9.47,0,0,1-7.59,3.32c-3.7,0-6.19-1.73-7.34-5C64.48,50.07,61,51.86,57.14,51.86Zm4.15-10.27c0,2.74,1.21,4.33,2.87,4.33C67,45.92,67,43.37,67,38.08V32.15C63.33,33.61,61.29,36.87,61.29,41.59Z"/><path class="cls-1" d="M105.11,48.73h.44v1.79H85.14V48.73h.19c2.81,0,3.83-1.34,3.83-4.53V22.32H86.1V20.6C88.27,18.88,89.54,16,91.65,13c3.12-4.47,7.65-7,12.31-7,5.1,0,8.54,2.74,8.54,6.44a4,4,0,0,1-4.33,4.15c-2.49,0-3.51-1.28-4.72-3.51-1.15-2-2-3.25-3.89-3.25a2.61,2.61,0,0,0-2.81,2.81c0,2.61,3.13,3.95,4.21,7.39h5.87v2.36h-5.68V44.2C101.15,47.45,102.17,48.73,105.11,48.73Z"/><path class="cls-1" d="M128.26,48.73h.44v1.79H108.29V48.73h.19c2.81,0,3.83-1.34,3.83-4.53V22.32h-3.06V20.6c2.17-1.72,3.44-4.65,5.55-7.65,3.12-4.47,7.65-7,12.31-7,5.1,0,8.54,2.74,8.54,6.44a4,4,0,0,1-4.33,4.15c-2.49,0-3.51-1.28-4.72-3.51-1.15-2-2-3.25-3.89-3.25a2.61,2.61,0,0,0-2.81,2.81c0,2.61,3.13,3.95,4.21,7.39H130v2.36H124.3V44.2C124.3,47.45,125.32,48.73,128.26,48.73Z"/><path class="cls-1" d="M147.71,51.86a15.41,15.41,0,0,1-12-5.55A15.89,15.89,0,0,1,132,35.72a17.87,17.87,0,0,1,3.63-11.1,15.84,15.84,0,0,1,12.25-6.06c8,0,13.33,5.23,13.33,13.65h-18c.25,7.65,5.68,12.88,11.86,12.88a7.7,7.7,0,0,0,6.06-2.67v2.93A17.14,17.14,0,0,1,147.71,51.86ZM146,30c4.46,0,6.18-.07,6.18-3.51q0-5.55-4-5.55c-3.57,0-5,2.93-5,9.06Z"/><path class="cls-1" d="M163.65,22.32,179.72,6.83V20h1.66a15.52,15.52,0,0,0,6.06-.89l-1,3.25h-6.76V38.78c0,5.36,1.34,8,4.34,8a6.38,6.38,0,0,0,2.42-.64V48a14.68,14.68,0,0,1-9.82,3.83c-5.8,0-9-3.39-9-10v-.39l.32-19.2Z"/><path class="cls-1" d="M198.09,51.86c-5.17,0-8.61-3.26-8.61-7.72,0-6.32,6.06-9.51,18.5-14.29V27.62c0-4.47-1-6.51-3.83-6.51a3.58,3.58,0,0,0-3.83,3.45c0,1.34.13,2.42.13,3.12,0,3.13-1.91,5-4.59,5a4,4,0,0,1-4.21-4.34c0-5.35,5.48-9.82,14.35-9.82,4.91,0,8.8,1.34,11.16,3.51,2.49,2.36,2.74,5.1,2.74,8.93v8.86c0,4.6.58,6.83,2.43,6.83a1.87,1.87,0,0,0,1.15-.51v2a9.49,9.49,0,0,1-7.59,3.32c-3.7,0-6.19-1.73-7.34-5C205.43,50.07,202,51.86,198.09,51.86Zm9-51.86a8.24,8.24,0,0,1,8.3,8.29,8.3,8.3,0,0,1-16.59,0A8.24,8.24,0,0,1,207.08,0Zm-4.84,41.59c0,2.74,1.21,4.33,2.87,4.33,2.8,0,2.87-2.55,2.87-7.84V32.15C204.28,33.61,202.24,36.87,202.24,41.59Zm4.84-29.53a3.73,3.73,0,0,0,3.77-3.77,3.8,3.8,0,1,0-7.59,0A3.71,3.71,0,0,0,207.08,12.06Z"/><path class="cls-1" d="M248.73,18.56a4.76,4.76,0,0,1,5.1,5,4,4,0,0,1-4.27,4.33c-3,0-4.08-2.8-5.36-2.8-1.53,0-1.91,2-1.91,6.25V44.2c0,3.19,1.15,4.53,4.21,4.53h.19v1.79H226.28V48.73h.19c2.81,0,3.83-1.34,3.83-4.53V32.47c0-1.73-.19-2.56-1.79-3.64l-3.89-2.74a135.09,135.09,0,0,0,16.84-7.78v5.48C243.5,20.35,245.92,18.56,248.73,18.56Z"/><path class="cls-1" d="M265.31,16.58A5.39,5.39,0,0,1,259.7,11a5.65,5.65,0,0,1,5.8-5.74c3.7,0,5.93,2.55,5.93,7,0,5.42-3.51,9.82-8.54,10.65l-.83-1.72c3.06-.45,4.78-2.05,5.29-4.92A5.78,5.78,0,0,1,265.31,16.58Z"/><path class="cls-1" d="M297.71,48.73v1.79H278V48.73h.19c2.81,0,3.83-1.34,3.83-4.53V32.47c0-1.73-.19-2.56-1.79-3.64l-3.89-2.74a107.37,107.37,0,0,0,16.59-7.78V23.6a11.8,11.8,0,0,1,9.95-5c6.82,0,10.14,3.45,10.14,10.53V44.2c0,3.19,1,4.53,3.82,4.53h.2v1.79H301V29.47c0-4.08-.77-6-3.64-6-2.61,0-3.38,2-3.38,6V44.2C294,47.33,295,48.67,297.71,48.73Z"/></g></g></svg>