<svg id="Layer_2" data-name="Layer 2" xmlns="http://www.w3.org/2000/svg" width="137.723" height="22.529" viewBox="0 0 137.723 22.529">
  <g id="Logo" transform="translate(0 0)">
    <path id="Path_44" data-name="Path 44" d="M9.917,24.851v.778H0v-.778c1.738-.113,2.172-.665,2.172-2.385V9.668C2.172,7.93,1.738,7.4,0,7.283V6.51H9.948v.773c-1.416.252-1.69.869-1.69,2.385v4.6c2.993-2.719,4.513-4.6,4.513-5.765,0-.747-.413-1.056-1.386-1.221V6.51h7.207v.773A6.556,6.556,0,0,0,13.91,9.89l-1.525,1.69c3.354,2.937,4.961,6.29,6.26,10.252.639,1.968.973,3.019,2.385,3.019h.165v.778H10.943v-.778c1.082-.083,1.442-.387,1.442-1.412,0-2.246-1.36-5.265-4.127-7.871v6.9C8.254,23.964,8.532,24.573,9.917,24.851Z" transform="translate(0 -3.682)" fill="#48372d"/>
    <path id="Path_45" data-name="Path 45" d="M52.27,33c-2.242,0-3.74-1.416-3.74-3.354,0-2.745,2.632-4.131,8.036-6.208v-.969c0-1.942-.434-2.828-1.664-2.828a1.551,1.551,0,0,0-1.659,1.5c0,.582.052,1.051.052,1.355A1.961,1.961,0,0,1,51.3,24.671a1.738,1.738,0,0,1-1.829-1.885c0-2.324,2.385-4.266,6.234-4.266a7.136,7.136,0,0,1,4.848,1.525c1.082,1.043,1.212,2.233,1.212,3.9V27.79c0,2,.248,2.967,1.051,2.967a.8.8,0,0,0,.5-.222V31.4a4.114,4.114,0,0,1-3.3,1.442,3.1,3.1,0,0,1-3.189-2.172A6.017,6.017,0,0,1,52.27,33Zm1.8-4.461c0,1.19.526,1.881,1.247,1.881,1.234,0,1.234-1.108,1.234-3.406V24.441A4.033,4.033,0,0,0,54.073,28.542Z" transform="translate(-27.448 -10.475)" fill="#48372d"/>
    <path id="Path_46" data-name="Path 46" d="M93.815,24.562h.191v.778H85.14v-.778h.083c1.221,0,1.664-.582,1.664-1.968v-9.5H85.557v-.747c.943-.747,1.494-2,2.411-3.3A6.616,6.616,0,0,1,93.315,6c2.215,0,3.71,1.19,3.71,2.8a1.738,1.738,0,0,1-1.881,1.8c-1.082,0-1.525-.556-2.05-1.525-.5-.869-.869-1.412-1.69-1.412a1.134,1.134,0,0,0-1.221,1.221c0,1.134,1.36,1.716,1.829,3.21h2.55V13.12H92.095v9.474C92.095,24.006,92.538,24.562,93.815,24.562Z" transform="translate(-48.155 -3.393)" fill="#48372d"/>
    <path id="Path_47" data-name="Path 47" d="M116.965,24.534h.191v.778H108.29v-.778h.083c1.221,0,1.664-.582,1.664-1.968v-9.5h-1.329v-.747c.943-.747,1.494-2.02,2.411-3.323a6.616,6.616,0,0,1,5.348-3.041c2.215,0,3.71,1.19,3.71,2.8a1.738,1.738,0,0,1-1.881,1.8c-1.082,0-1.525-.556-2.05-1.525-.5-.869-.869-1.412-1.69-1.412a1.134,1.134,0,0,0-1.221,1.221c0,1.134,1.36,1.716,1.829,3.21h2.559V13.07h-2.476v9.5C115.245,23.978,115.688,24.534,116.965,24.534Z" transform="translate(-61.248 -3.365)" fill="#48372d"/>
    <path id="Path_48" data-name="Path 48" d="M138.822,33.026a6.694,6.694,0,0,1-5.213-2.411,6.9,6.9,0,0,1-1.612-4.6,7.763,7.763,0,0,1,1.577-4.822A6.881,6.881,0,0,1,138.9,18.56c3.475,0,5.791,2.272,5.791,5.93h-7.819c.109,3.323,2.467,5.6,5.152,5.6a3.345,3.345,0,0,0,2.633-1.16V30.2A7.446,7.446,0,0,1,138.822,33.026Zm-.743-9.5c1.937,0,2.685-.03,2.685-1.525q0-2.411-1.738-2.411c-1.551,0-2.172,1.273-2.172,3.936Z" transform="translate(-74.656 -10.497)" fill="#48372d"/>
    <path id="Path_49" data-name="Path 49" d="M163.65,13.559l6.981-6.729v5.721h.721a6.742,6.742,0,0,0,2.632-.387l-.434,1.412h-2.937v7.133c0,2.328.582,3.475,1.885,3.475a2.772,2.772,0,0,0,1.051-.278v.808a6.377,6.377,0,0,1-4.266,1.664c-2.52,0-3.91-1.473-3.91-4.344v-.169l.139-8.341Z" transform="translate(-92.56 -3.863)" fill="#48372d"/>
    <path id="Path_50" data-name="Path 50" d="M193.22,22.528c-2.246,0-3.74-1.416-3.74-3.354,0-2.745,2.632-4.131,8.036-6.208V12c0-1.942-.434-2.828-1.664-2.828a1.555,1.555,0,0,0-1.664,1.5c0,.582.056,1.051.056,1.355a1.961,1.961,0,0,1-1.994,2.172,1.738,1.738,0,0,1-1.829-1.885c0-2.324,2.381-4.266,6.234-4.266A7.136,7.136,0,0,1,201.5,9.57c1.082,1.025,1.19,2.215,1.19,3.879V17.3c0,2,.252,2.967,1.056,2.967a.812.812,0,0,0,.5-.222v.869a4.122,4.122,0,0,1-3.3,1.442,3.1,3.1,0,0,1-3.189-2.172A5.892,5.892,0,0,1,193.22,22.528ZM197.13,0a3.579,3.579,0,0,1,3.606,3.6,3.606,3.606,0,0,1-7.207,0,3.58,3.58,0,0,1,3.6-3.6Zm-2.1,18.067c0,1.19.526,1.881,1.247,1.881,1.216,0,1.247-1.108,1.247-3.406V13.966a4.023,4.023,0,0,0-2.5,4.1Zm2.1-12.828A1.62,1.62,0,0,0,198.768,3.6a1.651,1.651,0,1,0-3.3,0,1.612,1.612,0,0,0,1.655,1.638Z" transform="translate(-107.169 0)" fill="#48372d"/>
    <path id="Path_51" data-name="Path 51" d="M235.093,18.419a2.068,2.068,0,0,1,2.215,2.172,1.738,1.738,0,0,1-1.855,1.881c-1.3,0-1.772-1.216-2.328-1.216-.665,0-.83.869-.83,2.715v5.586c0,1.386.5,1.968,1.829,1.968h.083V32.3h-8.866v-.778h.083c1.221,0,1.664-.582,1.664-1.968v-5.1a1.523,1.523,0,0,0-.778-1.581l-1.69-1.19a58.683,58.683,0,0,0,7.315-3.38v2.381C232.822,19.2,233.873,18.419,235.093,18.419Z" transform="translate(-127.044 -10.356)" fill="#48372d"/>
    <path id="Path_52" data-name="Path 52" d="M262.135,10.176A2.341,2.341,0,0,1,259.7,7.752a2.454,2.454,0,0,1,2.52-2.493c1.607,0,2.576,1.108,2.576,3.041a4.523,4.523,0,0,1-3.71,4.626l-.361-.747a2.439,2.439,0,0,0,2.3-2.137A2.511,2.511,0,0,1,262.135,10.176Z" transform="translate(-146.883 -2.974)" fill="#48372d"/>
    <path id="Path_53" data-name="Path 53" d="M285.623,31.525V32.3h-8.562v-.778h.083c1.221,0,1.664-.582,1.664-1.968v-5.1a1.523,1.523,0,0,0-.778-1.581l-1.69-1.19a46.642,46.642,0,0,0,7.207-3.38v2.3a5.126,5.126,0,0,1,4.322-2.172c2.963,0,4.4,1.5,4.4,4.574v6.546c0,1.386.434,1.968,1.659,1.968h.087V32.3h-6.968V23.158c0-1.772-.334-2.606-1.581-2.606-1.134,0-1.468.869-1.468,2.606v6.4C284.012,30.916,284.446,31.5,285.623,31.525Z" transform="translate(-156.297 -10.356)" fill="#48372d"/>
  </g>
</svg>
