<svg id="Layer_2" data-name="Layer 2" xmlns="http://www.w3.org/2000/svg" width="66.873" height="66.879" viewBox="0 0 66.873 66.879">
  <g id="Logo" transform="translate(0 0)">
    <path id="Path_35" data-name="Path 35" d="M33.437,5.99c8.929,0,9.985.035,13.512.2a18.508,18.508,0,0,1,6.209,1.151,10.353,10.353,0,0,1,3.849,2.5,10.353,10.353,0,0,1,2.5,3.849A18.508,18.508,0,0,1,60.659,19.9c.161,3.527.2,4.583.2,13.512s-.035,9.985-.2,13.512a18.508,18.508,0,0,1-1.151,6.209,11.084,11.084,0,0,1-6.346,6.346,18.508,18.508,0,0,1-6.209,1.151c-3.525.161-4.583.2-13.512.2s-9.986-.035-13.512-.2a18.508,18.508,0,0,1-6.209-1.151,10.353,10.353,0,0,1-3.849-2.5,10.353,10.353,0,0,1-2.5-3.849A18.508,18.508,0,0,1,6.22,46.913c-.161-3.527-.2-4.583-.2-13.512s.035-9.985.2-13.512A18.508,18.508,0,0,1,7.37,13.681a10.353,10.353,0,0,1,2.5-3.849,10.353,10.353,0,0,1,3.849-2.5A18.508,18.508,0,0,1,19.93,6.18c3.527-.161,4.583-.2,13.512-.2m0-6.024c-9.081,0-10.22.038-13.786.2a24.539,24.539,0,0,0-8.122,1.56A16.394,16.394,0,0,0,5.612,5.577,16.394,16.394,0,0,0,1.763,11.5,24.341,24.341,0,0,0,.2,19.616C.04,23.174,0,24.321,0,33.4s.038,10.22.2,13.786A24.519,24.519,0,0,0,1.756,55.3a16.394,16.394,0,0,0,3.856,5.922,16.416,16.416,0,0,0,5.922,3.857,24.574,24.574,0,0,0,8.116,1.554c3.558.163,4.705.2,13.786.2s10.22-.038,13.786-.2a24.519,24.519,0,0,0,8.116-1.554A17.1,17.1,0,0,0,65.118,55.3a24.575,24.575,0,0,0,1.554-8.116c.163-3.558.2-4.705.2-13.786s-.038-10.22-.2-13.786A24.519,24.519,0,0,0,65.118,11.5a16.416,16.416,0,0,0-3.857-5.922,16.394,16.394,0,0,0-5.922-3.849A24.341,24.341,0,0,0,47.223.167c-3.558-.162-4.705-.2-13.786-.2Z" transform="translate(0 0.04)" fill="#47362c"/>
    <path id="Path_36" data-name="Path 36" d="M139.721,122.56a17.171,17.171,0,1,0,17.171,17.17,17.171,17.171,0,0,0-17.171-17.17Zm0,28.315a11.149,11.149,0,1,1,11.149-11.149A11.149,11.149,0,0,1,139.721,150.875Z" transform="translate(-106.284 -106.288)" fill="#47362c"/>
    <circle id="Ellipse_149" data-name="Ellipse 149" cx="4.012" cy="4.012" r="4.012" transform="translate(47.273 11.58)" fill="#47362c"/>
  </g>
</svg>
