<svg id="Tripadvisor_Logo_circle-green_RGB" xmlns="http://www.w3.org/2000/svg" width="66.878" height="66.878" viewBox="0 0 66.878 66.878">
  <path id="Path_38" data-name="Path 38" d="M33.439,0A33.439,33.439,0,1,1,0,33.439,33.439,33.439,0,0,1,33.439,0Z" transform="translate(0 0)" fill="#47362c"/>
  <path id="Path_37" data-name="Path 37" d="M273.884,352.991l4.026-4.38h-8.924a27.877,27.877,0,0,0-31.368,0H228.67l4.025,4.38a12.3,12.3,0,1,0,16.65,18.116l3.944,4.294,3.942-4.289a12.305,12.305,0,1,0,16.652-18.121Zm-32.9,17.418a8.326,8.326,0,1,1,8.326-8.326A8.325,8.325,0,0,1,240.985,370.408Zm12.305-8.565c0-5.478-3.987-10.18-9.24-12.191a24.027,24.027,0,0,1,18.479,0C257.274,351.664,253.29,356.364,253.29,361.843Zm12.3,8.565a8.326,8.326,0,1,1,8.326-8.326A8.325,8.325,0,0,1,265.59,370.408Zm0-12.69a4.364,4.364,0,1,0,4.364,4.364A4.364,4.364,0,0,0,265.59,357.718Zm-20.242,4.364a4.364,4.364,0,1,1-4.364-4.364,4.364,4.364,0,0,1,4.364,4.364Z" transform="translate(-219.848 -326.149)" fill="#fff8de"/>
</svg>
